<svg width="27" height="25" viewBox="0 0 27 25" fill="none" xmlns="http://www.w3.org/2000/svg">
<path d="M13.4826 8.27841C14.0507 8.27841 14.5113 7.84685 14.5113 7.3145C14.5113 6.78214 14.0507 6.35059 13.4826 6.35059C12.9144 6.35059 12.4539 6.78214 12.4539 7.3145C12.4539 7.84685 12.9144 8.27841 13.4826 8.27841Z" fill="#222222"/>
<path d="M15.709 17.3324H14.2394V9.82764H12.035C11.8401 9.82764 11.6532 9.90018 11.5154 10.0293C11.3776 10.1584 11.3002 10.3335 11.3002 10.5161C11.3002 10.6987 11.3776 10.8739 11.5154 11.003C11.6532 11.1321 11.8401 11.2047 12.035 11.2047H12.7698V17.3324H11.3002C11.1053 17.3324 10.9184 17.4049 10.7806 17.534C10.6428 17.6632 10.5654 17.8383 10.5654 18.0209C10.5654 18.2035 10.6428 18.3786 10.7806 18.5077C10.9184 18.6369 11.1053 18.7094 11.3002 18.7094H15.709C15.9038 18.7094 16.0907 18.6369 16.2285 18.5077C16.3663 18.3786 16.4438 18.2035 16.4438 18.0209C16.4438 17.8383 16.3663 17.6632 16.2285 17.534C16.0907 17.4049 15.9038 17.3324 15.709 17.3324Z" fill="#222222"/>
<path d="M13.5046 23.5289C11.1793 23.5289 8.90628 22.8828 6.9729 21.6723C5.03952 20.4619 3.53263 18.7414 2.6428 16.7284C1.75296 14.7155 1.52014 12.5005 1.97377 10.3636C2.42741 8.22667 3.54712 6.26378 5.19133 4.72314C6.83554 3.18251 8.93038 2.13332 11.211 1.70826C13.4915 1.2832 15.8554 1.50136 18.0037 2.33514C20.1519 3.16893 21.9881 4.58089 23.2799 6.39249C24.5718 8.20408 25.2613 10.3339 25.2613 12.5127C25.2613 15.4344 24.0226 18.2364 21.8178 20.3023C19.613 22.3682 16.6227 23.5289 13.5046 23.5289ZM13.5046 2.8736C11.47 2.8736 9.48107 3.43893 7.78936 4.49809C6.09765 5.55725 4.77913 7.06268 4.00052 8.824C3.22191 10.5853 3.01819 12.5234 3.41512 14.3932C3.81205 16.263 4.79181 17.9806 6.23049 19.3286C7.66917 20.6767 9.50216 21.5947 11.4977 21.9666C13.4932 22.3386 15.5616 22.1477 17.4413 21.4181C19.321 20.6886 20.9276 19.4531 22.058 17.8679C23.1884 16.2828 23.7917 14.4192 23.7917 12.5127C23.7917 9.95628 22.7079 7.50453 20.7787 5.69684C18.8495 3.88915 16.2329 2.8736 13.5046 2.8736Z" fill="#222222"/>
</svg>
