<svg width="27" height="26" viewBox="0 0 27 26" fill="none" xmlns="http://www.w3.org/2000/svg">
<path d="M24.5437 11.4188L14.2836 2.57406C13.9501 2.28653 13.5108 2.13092 13.0577 2.13976C12.6046 2.1486 12.1726 2.32121 11.8521 2.62151L2.41584 11.4634L1.93158 11.9172V24.952H11.0247V16.819H15.9845V24.952H25.0776V11.8791L24.5437 11.4188ZM13.0932 3.68858C13.1078 3.68858 13.0988 3.69153 13.0926 3.69729C13.0861 3.69153 13.0787 3.68858 13.0932 3.68858ZM23.4243 23.4029H17.6378V16.819C17.6378 16.4081 17.4636 16.0141 17.1536 15.7236C16.8435 15.4331 16.423 15.2698 15.9845 15.2698H11.0247C10.5862 15.2698 10.1657 15.4331 9.85561 15.7236C9.54556 16.0141 9.37137 16.4081 9.37137 16.819V23.4029H3.58487V12.5588L13.0932 3.7169C13.0939 3.71632 13.094 3.71578 13.0945 3.7152L23.4243 12.5588V23.4029Z" fill="#222222"/>
</svg>
