<svg width="25" height="25" viewBox="0 0 25 25" fill="none" xmlns="http://www.w3.org/2000/svg">
<path d="M12.5 2.08337C6.74689 2.08337 2.08334 6.74692 2.08334 12.5C2.08334 18.2532 6.74689 22.9167 12.5 22.9167C18.2531 22.9167 22.9167 18.2532 22.9167 12.5C22.9167 6.74692 18.2531 2.08337 12.5 2.08337Z" stroke="#222222" stroke-width="1.5" stroke-linecap="round" stroke-linejoin="round"/>
<path d="M4.44897 19.1105C4.44897 19.1105 6.77085 16.1459 12.5 16.1459C18.2292 16.1459 20.5521 19.1105 20.5521 19.1105" stroke="#222222" stroke-width="1.5" stroke-linecap="round" stroke-linejoin="round"/>
<path d="M12.5 12.5C13.3288 12.5 14.1237 12.1708 14.7097 11.5847C15.2958 10.9987 15.625 10.2038 15.625 9.375C15.625 8.5462 15.2958 7.75134 14.7097 7.16529C14.1237 6.57924 13.3288 6.25 12.5 6.25C11.6712 6.25 10.8763 6.57924 10.2903 7.16529C9.70424 7.75134 9.375 8.5462 9.375 9.375C9.375 10.2038 9.70424 10.9987 10.2903 11.5847C10.8763 12.1708 11.6712 12.5 12.5 12.5V12.5Z" stroke="#222222" stroke-width="1.5" stroke-linecap="round" stroke-linejoin="round"/>
</svg>
