<svg width="19" height="22" viewBox="0 0 19 22" fill="none" xmlns="http://www.w3.org/2000/svg">
<path d="M9.29047 6.65698C7.28866 6.65698 5.69748 8.53303 5.69748 10.8932C5.69748 13.2534 7.28866 15.1294 9.29047 15.1294C11.2923 15.1294 12.8835 13.2534 12.8835 10.8932C12.8835 8.53303 11.2923 6.65698 9.29047 6.65698ZM9.29047 13.9191C7.85328 13.9191 6.72405 12.5877 6.72405 10.8932C6.72405 9.19872 7.85328 7.86733 9.29047 7.86733C10.7277 7.86733 11.8569 9.19872 11.8569 10.8932C11.8569 12.5877 10.7277 13.9191 9.29047 13.9191Z" fill="#222222"/>
<path d="M16.8358 8.89606L15.3986 8.3514L15.0906 7.44364L15.8092 5.87018C15.9632 5.50707 15.9118 5.02293 15.6552 4.72035L14.4233 3.26792C14.1667 2.96534 13.756 2.90482 13.4481 3.08637L12.1135 3.93362L11.3436 3.57051L10.8817 1.87602C10.779 1.51291 10.471 1.21033 10.1117 1.21033H8.36656C8.00726 1.21033 7.69929 1.51292 7.64796 1.93654L7.186 3.63103C6.87803 3.69155 6.62139 3.81258 6.36474 3.99414L5.0302 3.14689C4.72223 2.96534 4.3116 3.02585 4.05496 3.32844L2.82308 4.78086C2.56644 5.08345 2.51511 5.56759 2.66909 5.9307L3.33636 7.44364C3.23371 7.74622 3.13105 8.10933 3.02839 8.41192L1.59119 8.95658C1.28322 9.07761 1.02658 9.44072 1.02658 9.86434V11.9219C1.02658 12.3456 1.28322 12.7087 1.64252 12.8297L3.07972 13.3744L3.38769 14.2821L2.66909 15.8556C2.51511 16.2187 2.56644 16.7028 2.82308 17.0054L4.05496 18.4578C4.3116 18.7604 4.72223 18.8209 5.0302 18.6394L6.36474 17.7921L7.13467 18.1552L7.59663 19.9103C7.69929 20.2734 8.00726 20.5759 8.36656 20.5759H10.1117C10.471 20.5759 10.779 20.2734 10.8817 19.9103L11.3436 18.1552L12.1135 17.7921L13.4481 18.6394C13.756 18.8209 14.1667 18.7604 14.4233 18.4578L15.6552 17.0054C15.9118 16.7028 15.9632 16.2187 15.8092 15.8556L15.0906 14.2821L15.3986 13.3744L16.8871 12.8297C17.1951 12.7087 17.4517 12.3456 17.4517 11.9219V9.86434C17.4517 9.44072 17.1951 9.01709 16.8358 8.89606ZM16.4251 11.7404L14.5773 12.4061L14.526 12.7087L14.064 13.9795L13.91 14.2821L14.8339 16.2792L13.8074 17.4896L12.1135 16.4002L11.8569 16.5818C11.4976 16.8239 11.1383 17.0054 10.779 17.1264L10.5224 17.187L9.95774 19.3656H8.52054L7.95593 17.187L7.69929 17.1264L6.62139 16.5818L6.36474 16.4002L4.6709 17.4896L3.64433 16.2792L4.56825 14.2821L4.41426 13.9795C4.20895 13.5559 4.05496 13.1323 3.95231 12.7087L3.90098 12.4061L2.05315 11.7404V10.0459L3.79832 9.44072L3.90098 9.13813C4.00363 8.65399 4.15762 8.23036 4.36293 7.80674L4.51692 7.50415L3.64433 5.50707L4.6709 4.29672L6.31342 5.38604L6.57006 5.20449C6.92936 4.96242 7.28866 4.78086 7.69929 4.65983L7.95593 4.53879L8.52054 2.42068H9.95774L10.5224 4.53879L10.779 4.65983C11.1383 4.78086 11.4976 4.96242 11.8569 5.20449L12.1135 5.38604L13.8074 4.29672L14.8339 5.50707L13.91 7.50415L14.064 7.80674C14.2693 8.23036 14.4233 8.65399 14.526 9.07761L14.5773 9.3802L16.4251 10.0459V11.7404Z" fill="#222222"/>
</svg>
