<svg width="21" height="21" viewBox="0 0 21 21" fill="none" xmlns="http://www.w3.org/2000/svg">
<path d="M15.2711 6.66599C15.7486 6.6657 16.1934 6.49291 16.5412 6.14863C16.5465 6.1434 16.5518 6.13813 16.557 6.13282C16.9062 5.77889 17.0773 5.32814 17.0767 4.84822L15.2711 6.66599ZM15.2711 6.66599C15.2715 6.66599 15.2719 6.66599 15.2723 6.66599L15.2714 6.30154C15.2709 6.30154 15.2704 6.30154 15.2699 6.30154L15.2711 6.66599ZM17.0767 4.84705C17.0767 4.84667 17.0767 4.84628 17.0767 4.84589L16.6905 4.84679C16.6902 4.43138 16.5596 4.11036 16.2874 3.82797L17.0767 4.84705Z" fill="white" stroke="#72AA42" stroke-width="2"/>
</svg>
